<?xml version="1.0" encoding="utf-8"?>
<svg height="1696.143px" style="enable-background:new 0 0 1696.162 1696.143;" version="1.1" viewBox="0 0 1696.162 1696.143" width="1696.162px" xmlns="http://www.w3.org/2000/svg">
  <g id="pen">
    <path d="M 1648.016 305.367 L 1390.795 48.149 C 1359.747 17.098 1318.466 0 1274.555 0 C 1230.648 0 1189.367 17.098 1158.319 48.148 L 81.585 1124.866 C 71.365 1135.086 64.777 1148.377 62.835 1162.699 L 0.601 1621.186 C -2.173 1641.634 4.762 1662.201 19.354 1676.791 C 31.827 1689.264 48.667 1696.143 66.068 1696.143 C 69.02 1696.143 71.991 1695.946 74.959 1695.542 L 533.447 1633.311 C 547.771 1631.366 561.062 1624.782 571.282 1614.559 L 1648.016 537.844 C 1679.065 506.796 1696.162 465.514 1696.162 421.607 C 1696.162 377.696 1679.064 336.415 1648.016 305.367 Z M 493.598 1505.366 L 143.217 1552.924 L 190.777 1202.548 L 945.227 433.142 L 1256.598 742.376 L 493.598 1505.366 Z M 1554.575 444.404 L 1350.039 648.937 L 1047.218 346.119 L 1251.753 141.587 C 1259.973 133.369 1269.567 132.141 1274.555 132.141 C 1279.543 132.141 1289.137 133.369 1297.358 141.587 L 1554.579 398.805 C 1562.796 407.022 1564.022 416.617 1564.022 421.604 C 1564.022 426.591 1562.795 436.186 1554.575 444.404 Z" style="paint-order: stroke; fill: rgb(255, 255, 255);"/>
  </g>
  <g id="Layer_1"/>
</svg>